<mxfile host="app.diagrams.net" agent="Mozilla/5.0 (Windows NT 10.0; Win64; x64) AppleWebKit/537.36 (KHTML, like Gecko) Chrome/141.0.0.0 Safari/537.36 Edg/141.0.0.0" version="28.2.5">
  <diagram name="Página-1" id="yIkPskF3tNsshCI_d_uD">
    <mxGraphModel dx="1926" dy="925" grid="1" gridSize="10" guides="1" tooltips="1" connect="1" arrows="1" fold="1" page="1" pageScale="1" pageWidth="827" pageHeight="1169" math="0" shadow="0">
      <root>
        <mxCell id="0" />
        <mxCell id="1" parent="0" />
        <mxCell id="Z4hrxRLbaqMMD4cfCzb8-3" style="edgeStyle=orthogonalEdgeStyle;rounded=0;orthogonalLoop=1;jettySize=auto;html=1;entryX=0;entryY=0.5;entryDx=0;entryDy=0;" parent="1" source="Z4hrxRLbaqMMD4cfCzb8-1" target="Z4hrxRLbaqMMD4cfCzb8-2" edge="1">
          <mxGeometry relative="1" as="geometry" />
        </mxCell>
        <mxCell id="Z4hrxRLbaqMMD4cfCzb8-1" value="inicio" style="ellipse;whiteSpace=wrap;html=1;fillColor=#b0e3e6;strokeColor=#0e8088;" parent="1" vertex="1">
          <mxGeometry x="310" y="10" width="120" height="80" as="geometry" />
        </mxCell>
        <mxCell id="Z4hrxRLbaqMMD4cfCzb8-5" style="edgeStyle=orthogonalEdgeStyle;rounded=0;orthogonalLoop=1;jettySize=auto;html=1;entryX=0;entryY=0.5;entryDx=0;entryDy=0;" parent="1" source="Z4hrxRLbaqMMD4cfCzb8-2" target="Z4hrxRLbaqMMD4cfCzb8-4" edge="1">
          <mxGeometry relative="1" as="geometry" />
        </mxCell>
        <mxCell id="Z4hrxRLbaqMMD4cfCzb8-2" value="B=0,8&lt;div&gt;S=1&lt;/div&gt;&lt;div&gt;C=0,6&lt;/div&gt;&lt;div&gt;R=1,5&lt;/div&gt;" style="rounded=0;whiteSpace=wrap;html=1;fillColor=#bac8d3;strokeColor=#23445d;" parent="1" vertex="1">
          <mxGeometry x="390" y="180" width="120" height="60" as="geometry" />
        </mxCell>
        <mxCell id="Z4hrxRLbaqMMD4cfCzb8-8" value="" style="edgeStyle=orthogonalEdgeStyle;rounded=0;orthogonalLoop=1;jettySize=auto;html=1;" parent="1" source="Z4hrxRLbaqMMD4cfCzb8-4" target="Z4hrxRLbaqMMD4cfCzb8-6" edge="1">
          <mxGeometry relative="1" as="geometry" />
        </mxCell>
        <mxCell id="Z4hrxRLbaqMMD4cfCzb8-4" value="Ler PreçosSandes, PreçosBolos, PreçosCafé&lt;div&gt;PreçosRefrigerante&lt;/div&gt;" style="shape=parallelogram;perimeter=parallelogramPerimeter;whiteSpace=wrap;html=1;fixedSize=1;fillColor=#f5f5f5;strokeColor=#666666;gradientColor=#b3b3b3;" parent="1" vertex="1">
          <mxGeometry x="320" y="360" width="260" height="60" as="geometry" />
        </mxCell>
        <mxCell id="Z4hrxRLbaqMMD4cfCzb8-11" value="" style="edgeStyle=orthogonalEdgeStyle;rounded=0;orthogonalLoop=1;jettySize=auto;html=1;" parent="1" source="Z4hrxRLbaqMMD4cfCzb8-6" target="Z4hrxRLbaqMMD4cfCzb8-9" edge="1">
          <mxGeometry relative="1" as="geometry" />
        </mxCell>
        <mxCell id="Z4hrxRLbaqMMD4cfCzb8-6" value="Ler SandesVendidas, BolosVendidos&lt;div&gt;CaféVendidos, RefrigeranteVendido&lt;/div&gt;" style="shape=parallelogram;perimeter=parallelogramPerimeter;whiteSpace=wrap;html=1;fixedSize=1;fillColor=#f8cecc;strokeColor=#b85450;gradientColor=#ea6b66;" parent="1" vertex="1">
          <mxGeometry x="350" y="525" width="240" height="60" as="geometry" />
        </mxCell>
        <mxCell id="Z4hrxRLbaqMMD4cfCzb8-13" style="edgeStyle=orthogonalEdgeStyle;rounded=0;orthogonalLoop=1;jettySize=auto;html=1;entryX=1;entryY=0.5;entryDx=0;entryDy=0;" parent="1" source="Z4hrxRLbaqMMD4cfCzb8-9" target="Z4hrxRLbaqMMD4cfCzb8-12" edge="1">
          <mxGeometry relative="1" as="geometry">
            <Array as="points">
              <mxPoint x="650" y="680" />
            </Array>
          </mxGeometry>
        </mxCell>
        <mxCell id="Z4hrxRLbaqMMD4cfCzb8-9" value="Lucro= SV, BV, CV, RV" style="shape=parallelogram;perimeter=parallelogramPerimeter;whiteSpace=wrap;html=1;fixedSize=1;fillColor=#d5e8d4;strokeColor=#82b366;gradientColor=#97d077;" parent="1" vertex="1">
          <mxGeometry x="350" y="670" width="240" height="60" as="geometry" />
        </mxCell>
        <mxCell id="Z4hrxRLbaqMMD4cfCzb8-12" value="Fim" style="ellipse;whiteSpace=wrap;html=1;fillColor=#fff2cc;strokeColor=#d6b656;gradientColor=#ffd966;" parent="1" vertex="1">
          <mxGeometry x="410" y="810" width="120" height="80" as="geometry" />
        </mxCell>
        <mxCell id="b-tZp1s01gzFu3s2Ird4-1" style="edgeStyle=orthogonalEdgeStyle;rounded=0;orthogonalLoop=1;jettySize=auto;html=1;exitX=1;exitY=0;exitDx=0;exitDy=0;entryX=0.942;entryY=0.033;entryDx=0;entryDy=0;entryPerimeter=0;" edge="1" parent="1" source="Z4hrxRLbaqMMD4cfCzb8-2" target="Z4hrxRLbaqMMD4cfCzb8-2">
          <mxGeometry relative="1" as="geometry" />
        </mxCell>
      </root>
    </mxGraphModel>
  </diagram>
</mxfile>
